# xmcd CD database file
#
# Track frame offsets:
#	150
#	30205
#	56237
#	81727
#	108780
#	133395
#	170685
#	195022
#	221555
#	237960
#	271752
#	308757
#
# Disc length: 4510 seconds
#
# Revision: 0
# Processed by: cddbd v1.5PL3 Copyright (c) Steve Scherf et al.
# Submitted via: CDex 1.50beta8
#
DISCID=a2119c0c
DTITLE=The Underwolves - Under Your Sky Remixes
DYEAR=2002
DGENRE=Club
TTITLE0=Bird Song (Earthbound Remix/Slow Version)
TTITLE1=Under Your Sky (Origin Uknown Remix)
TTITLE2=So Blue It's Black (Heavy Manners Remix)
TTITLE3=So Blue It's Black (Peshay Vs. Photek Remix)
TTITLE4=So Blue It's Black (Juryman Aberasch Returns To Addis Voice Mix)
TTITLE5=In The Picture (Intega Mix)
TTITLE6=Under Your Sky (Divine Styler Without Rap Remix)
TTITLE7=Shaken (Fauna Flash Drum and Bass Mix)
TTITLE8=Under Your Sky (Spacek Mix)
TTITLE9=In The Picture (Original)
TTITLE10=So Blue It's Black (Restless Soul Peaktime Mix)
TTITLE11=Shaken (Fauna Flash Timbales Remix)
EXTD=YEAR: 2002
EXTT0=
EXTT1=
EXTT2=
EXTT3=
EXTT4=
EXTT5=
EXTT6=
EXTT7=
EXTT8=
EXTT9=
EXTT10=
EXTT11=
PLAYORDER=
